# xmcd CD database file
#
# Track frame offsets:
#	150
#	18055
#	37217
#	55542
#	73145
#	91210
#	107860
#	124150
#	141792
#	157327
#	174627
#	186782
#	204285
#	222140
#	238282
#	254580
#	271837
#	289142
#	306865
#	323010
#
# Disc length: 4542 seconds
#
# Revision: 0
# Processed by: cddbd v1.5PL3 Copyright (c) Steve Scherf et al.
# Submitted via: CDex 1.51
#
DISCID=2d11bc14
DTITLE=オムニバス - Jazz Ever! -40 Blue Note Hits-
DYEAR=2004
DGENRE=Jazz
TTITLE0=Cool Struttin'
TTITLE1=Blue Train
TTITLE2=Cantaloupe Island
TTITLE3=Alligator Bogaloo
TTITLE4=Si-Joya
TTITLE5=Dear Old Stockholm
TTITLE6=Tune Up
TTITLE7=Open Sesame
TTITLE8=Besame Mucho
TTITLE9=April In Paris
TTITLE10=Loie
TTITLE11=Look Out
TTITLE12=Us Three
TTITLE13=When Johnny Comes Marching Home
TTITLE14=Sweet Honey Bee
TTITLE15=Tico Tico
TTITLE16=Sweet Love Of Mine
TTITLE17=My Girl Shirl
TTITLE18=Black Fire
TTITLE19=Yes Or No
EXTD=YEAR: 2004
EXTT0=
EXTT1=
EXTT2=
EXTT3=
EXTT4=
EXTT5=
EXTT6=
EXTT7=
EXTT8=
EXTT9=
EXTT10=
EXTT11=
EXTT12=
EXTT13=
EXTT14=
EXTT15=
EXTT16=
EXTT17=
EXTT18=
EXTT19=
PLAYORDER=
